<?xml version="1.0" encoding="UTF-8"?>
<!DOCTYPE svg PUBLIC "-//W3C//DTD SVG 1.1//EN" "http://www.w3.org/Graphics/SVG/1.1/DTD/svg11.dtd">
<!-- Creator: CorelDRAW 2019 (64-Bit) -->
<svg xmlns="http://www.w3.org/2000/svg" xml:space="preserve" width="3.65658in" height="1.02493in" version="1.1" style="shape-rendering:geometricPrecision; text-rendering:geometricPrecision; image-rendering:optimizeQuality; fill-rule:evenodd; clip-rule:evenodd"
viewBox="0 0 2245.08 629.29"
 xmlns:xlink="http://www.w3.org/1999/xlink">
 <defs>
  <style type="text/css">
   <![CDATA[
    .fil0 {fill:black;fill-rule:nonzero}
   ]]>
  </style>
 </defs>
 <g id="Capa_x0020_1">
  <metadata id="CorelCorpID_0Corel-Layer"/>
  <path class="fil0" d="M1879.98 10.67c-7.5,9.57 -8.74,14.99 -6.67,30.4 1.26,10.41 4.17,44.13 6.25,74.94 2.51,30.81 5.41,64.11 7.08,74.11 2.09,13.73 1.25,19.57 -4.16,25.39 -4.16,4.58 -6.65,11.24 -5.82,15.82 0.83,5.84 -7.5,11.66 -38.31,27.06 -47.88,23.32 -88.26,39.57 -109.91,43.3l-15.82 2.92 1.66 -16.23c2.5,-21.66 18.72,-94.51 26.22,-118.67 11.24,-35.39 4.58,-55.79 -14.16,-45.39 -4.99,2.51 -8.74,5.41 -8.74,6.67 0,3.33 -16.65,89.1 -21.24,109.91 -2.49,10.42 -5.82,27.9 -7.49,39.55 -3.75,27.07 -5.41,29.57 -24.15,33.32 -8.74,1.24 -22.06,6.25 -29.98,10.81 -7.5,4.58 -14.58,7.5 -15.82,6.67 -0.83,-0.83 -5.01,-12.07 -9.57,-24.56 -7.91,-23.32 -13.75,-62.45 -12.92,-92.42 0,-8.76 -3.33,-22.92 -7.49,-31.23 -4.58,-8.33 -9.17,-18.32 -10.41,-22.49 -2.51,-7.49 -17.08,-9.57 -21.23,-2.9 -3.34,4.99 -25.82,5.41 -28.74,0.41 -1.24,-2.07 -22.9,-8.74 -48.29,-14.99 -25.39,-6.25 -47.05,-13.33 -48.72,-16.23 -5.82,-9.17 -3.75,-19.57 4.58,-24.15 12.49,-6.65 74.94,-7.49 110.33,-1.66 29.14,4.99 31.23,4.99 39.14,-2.92 7.91,-7.91 7.91,-8.32 0.41,-15.82 -10.83,-10.41 -52.04,-16.23 -110.74,-15.4 -33.73,0.83 -50.38,-0.42 -54.13,-4.17 -7.49,-7.49 -18.74,-6.25 -28.31,3.34 -7.08,7.08 -12.07,8.32 -34.56,6.23 -22.48,-1.66 -27.06,-3.73 -36.63,-14.99 -13.32,-14.99 -27.9,-15.4 -35.39,-0.41 -8.33,16.65 -11.66,17.91 -60.38,17.91 -26.22,0.41 -66.61,2.07 -90.34,4.57 -39.55,3.34 -44.13,2.92 -56.63,-4.57 -12.07,-7.91 -14.16,-7.91 -25.39,-2.09 -14.99,7.5 -45.39,4.16 -61.21,-7.08 -12.9,-9.17 -28.31,-10.41 -35.8,-2.92 -7.5,7.5 -6.25,14.16 4.99,26.24 5.84,6.25 9.17,13.73 7.91,18.32 -1.24,4.16 0,9.15 2.49,10.4 2.92,1.67 4.58,-0.42 4.58,-5.41 0,-11.66 6.25,-14.16 24.16,-8.74 35.8,10.83 54.54,21.66 59.12,34.56 4.99,15.4 5.41,39.14 0.41,42.47 -2.07,1.24 -21.24,-0.42 -42.88,-3.75 -39.14,-6.25 -63.28,-8.33 -149.05,-12.9 -26.22,-1.66 -54.54,-4.58 -62.45,-6.25 -7.91,-2.09 -23.32,-6.25 -34.15,-8.74 -16.65,-4.17 -20.81,-4.17 -29.98,2.07 -14.56,9.57 -14.16,24.98 2.09,42.89 7.08,8.32 15.41,20.4 18.32,27.89 3.33,7.08 11.66,25.39 18.31,41.21 7.08,15.41 12.92,29.14 12.92,30.4 0,4.16 -45.8,-2.92 -73.7,-11.24 -31.21,-9.59 -33.71,-15.41 -27.06,-57.05 2.5,-14.99 3.33,-29.14 1.66,-31.64 -1.66,-2.49 -2.92,-11.24 -3.33,-19.15 0,-7.91 -1.26,-21.24 -2.92,-29.14 -7.49,-44.13 -7.49,-53.71 -0.41,-64.94 7.49,-10.83 7.49,-10.83 -10.42,-27.07 -17.48,-16.65 -33.3,-20.81 -40.79,-11.24 -6.67,8.74 -10,37.46 -4.58,43.71 4.99,6.25 1.66,25.82 -17.08,94.94 -10.81,39.55 -12.07,41.64 -24.56,45.37 -17.08,5.01 -20.81,16.65 -9.57,32.06 12.07,16.65 11.24,66.61 -1.26,65.77 -5.82,-0.41 -37.46,-39.13 -78.67,-97.41 -18.33,-24.99 -42.89,-55.37 -54.96,-66.62 -17.08,-16.23 -22.49,-24.56 -23.73,-35.39 -0.83,-12.07 -3.33,-14.99 -13.75,-18.31 -6.65,-1.67 -17.48,-6.25 -23.73,-9.15 -23.73,-12.49 -38.29,-3.35 -28.72,18.31 5.82,12.49 2.49,16.23 -31.64,34.14 -11.25,5.84 -26.65,14.58 -34.56,19.98 -7.91,5.41 -29.57,17.08 -47.88,26.24 -18.31,9.15 -36.22,17.89 -39.55,19.98 -3.33,2.09 -26.65,12.9 -51.62,23.73 -79.12,35.39 -136.98,65.79 -144.89,77.03 -6.67,9.15 -7.08,12.07 -2.92,21.64 2.92,6.25 8.33,12.09 12.49,13.33 5.41,1.66 7.91,7.5 8.74,19.57 1.66,23.32 11.66,26.65 11.66,3.75 0,-14.99 1.66,-17.91 11.24,-21.66 6.25,-2.07 17.91,-3.33 26.23,-2.07 7.91,1.66 29.97,0.83 49.14,-1.26 30.81,-3.33 39.13,-2.49 69.93,6.25 34.15,9.16 73.7,22.49 91.18,30.81 4.58,2.09 14.99,6.67 22.9,10 7.91,3.33 25.82,12.9 39.55,21.24 37.05,21.64 59.54,31.22 74.94,31.22 31.64,0 17.91,-19.98 -27.06,-39.55 -14.99,-6.25 -44.96,-19.98 -66.62,-30.38 -38.29,-17.91 -99.08,-41.64 -137.8,-53.3 -10.42,-3.33 -37.48,-7.48 -59.95,-10 -22.49,-2.5 -42.06,-5.41 -43.3,-6.65 -5.84,-5.82 12.9,-15.82 164.04,-89.93 16.23,-7.91 44.96,-22.9 64.54,-33.73 52.45,-28.31 68.69,-33.31 83.26,-25.82 14.16,7.5 66.62,57.88 66.62,64.13 0,2.07 9.57,14.99 21.23,28.31 24.14,27.89 51.62,65.77 67.03,92.83 15.4,27.08 17.89,43.3 10.41,68.29 -3.75,11.66 -10.41,37.05 -15.41,56.62 -4.99,19.57 -13.32,44.54 -18.72,56.2 -10,21.64 -22.91,69.12 -22.91,84.11 0,16.23 20.4,24.97 33.32,14.56 7.08,-5.41 9.98,-14.99 12.9,-40.38 2.49,-18.32 6.67,-36.22 9.57,-39.55 6.67,-7.91 15.41,-33.31 12.92,-37.48 -4.17,-6.25 9.57,-62.02 18.32,-74.11 4.58,-7.08 8.74,-15.82 8.74,-20.4 0,-4.16 3.75,-14.56 8.32,-23.31 10,-18.32 10.42,-29.14 2.09,-41.64 -4.99,-8.33 -4.99,-12.07 0.42,-30.81 3.33,-11.66 8.74,-23.32 11.65,-25.82 7.08,-5.82 29.98,1.66 33.73,11.24 5.41,12.49 8.74,130.73 4.16,139.9 -2.07,4.16 -16.23,17.08 -31.22,27.89 -14.99,10.83 -33.3,25.82 -40.81,33.31 -13.32,12.92 -13.73,13.75 -6.25,20.4 4.16,4.17 12.92,8.74 19.57,10 10.41,2.49 14.16,0.42 29.98,-16.65 10,-10.83 18.32,-21.23 18.32,-22.9 0,-6.67 12.49,-3.75 20.83,4.58 10.81,10.81 19.15,10.41 27.06,-1.66 4.99,-7.08 5.82,-14.58 3.75,-25.41 -2.09,-12.48 -0.83,-16.65 7.08,-25.39 14.99,-15.82 84.09,-67.03 94.09,-69.53 12.49,-2.92 13.73,5.41 14.16,79.93 0.42,62.04 0.83,62.04 11.66,69.95 5.82,4.58 16.23,9.17 22.47,10.41 10,2.09 14.58,-0.83 31.23,-18.74 57.46,-61.62 76.19,-74.09 144.89,-96.16 11.65,-3.75 24.97,-9.59 29.14,-12.92 4.16,-3.33 9.15,-6.25 10.81,-6.25 4.17,0 7.5,21.24 8.74,55.37 1.25,29.98 5.01,36.22 22.49,36.22 15.82,0 29.14,-28.72 18.32,-39.55 -11.66,-12.07 -21.64,-88.27 -13.73,-101.17 2.49,-3.75 16.23,0.41 54.54,17.48 54.54,24.56 93.68,48.72 117.41,72.87 27.89,28.72 28.72,31.22 26.65,82.43 -1.68,41.21 -0.83,47.46 6.25,56.2 7.49,9.16 8.32,9.16 19.56,3.34 10.42,-5.84 11.66,-9.16 12.09,-27.07 0.41,-11.66 -1.26,-25.39 -2.92,-31.22 -2.09,-5.84 -4.58,-29.98 -5.41,-54.13 -1.24,-24.15 -3.33,-65.78 -4.99,-92.85 -1.66,-30.81 -1.25,-48.72 1.67,-48.72 7.08,0 56.62,16.67 60.36,20.4 2.09,2.09 5.41,31.64 7.5,65.37 2.5,47.46 2.5,62.45 -1.66,64.96 -3.75,2.07 -2.49,4.99 4.16,9.57 20.81,14.56 22.49,18.74 21.66,48.29 -1.26,40.38 2.9,40.38 5.4,0 1.25,-23.32 3.75,-34.97 8.76,-39.97 8.74,-8.32 9.15,-22.07 0.83,-37.89 -3.34,-6.65 -7.91,-29.98 -10.42,-51.62 -6.25,-53.71 -4.99,-54.54 45.8,-32.06 21.66,9.57 47.88,22.49 58.29,28.31 10.42,5.82 27.07,15.82 37.48,21.64 10.41,5.84 27.89,18.74 39.14,28.74 18.32,16.65 20.39,19.98 22.47,40.38 1.67,19.15 3.75,23.32 13.73,29.14 11.25,6.25 12.08,8.74 12.08,30.4 0,13.32 1.66,24.14 3.75,24.14 2.07,0 3.33,-9.98 2.91,-22.07 -0.41,-19.98 0.42,-21.64 9.57,-22.9 8.33,-1.24 9.57,0 7.5,7.08 -1.26,5.01 -0.43,10 1.66,11.24 2.09,1.25 3.75,-2.07 3.75,-7.49 0,-5.41 3.73,-12.9 8.32,-17.08 9.16,-7.49 10.4,-15.82 4.17,-27.06 -7.91,-14.56 -11.25,-46.22 -7.5,-70.36 5.41,-32.89 10.83,-42.89 23.32,-42.89 20.81,0 81.19,24.15 100.34,39.97 6.24,4.99 17.48,10.83 25.39,13.75 18.32,5.82 39.97,24.14 45.39,38.72 2.49,6.65 2.91,19.55 0.83,32.88 -3.75,23.73 3.33,60.78 12.9,67.03 7.91,5.01 20.4,2.09 25.82,-5.82 2.9,-4.99 2.49,-12.9 -1.26,-27.89 -6.65,-26.24 -3.33,-37.89 10.83,-37.89 10,0 10.41,0.83 8.74,20.81 -0.43,11.66 0,20.81 2.09,20.81 1.66,0 2.9,-10.4 2.9,-22.9 0,-18.32 1.66,-23.31 8.33,-27.06 12.07,-6.65 10.4,-20.4 -2.92,-24.98 -31.22,-11.24 -32.47,-13.32 -31.22,-48.72 0.83,-17.48 2.07,-32.88 2.9,-34.13 7.91,-7.49 174.04,90.76 179.86,106.58 1.25,2.92 4.17,5.41 6.25,5.41 2.51,0 12.08,7.91 21.66,17.48 44.96,45.8 106.58,92.02 113.23,85.36 2.92,-2.92 -11.24,-36.22 -14.99,-36.22 -2.07,0 -12.48,-8.33 -23.73,-18.33 -32.47,-30.38 -92.43,-77.84 -130.31,-104.08 -19.57,-13.73 -39.14,-27.89 -43.71,-32.05 -4.58,-3.75 -29.97,-18.74 -56.22,-32.89 -26.22,-14.16 -50.38,-28.31 -53.28,-31.22 -4.17,-3.75 -4.58,-10 -2.09,-22.92 4.16,-21.64 19.57,-33.71 80.35,-62.45 21.64,-10.4 43.3,-22.06 47.46,-25.8 4.58,-4.17 16.65,-10.42 27.07,-14.16 22.9,-8.33 42.04,-27.07 42.04,-41.23 0,-13.32 -6.67,-13.32 -25.82,0 -8.32,5.84 -16.65,10.42 -17.91,10.42 -1.24,0 -9.98,4.99 -19.56,10.81 -35.81,22.49 -123.25,68.29 -131.16,68.29 -15.4,0 -6.65,-22.07 17.08,-42.05 9.17,-7.92 12.9,-14.58 12.9,-24.15 0,-13.75 -0.41,-14.16 -22.9,-14.58 -8.32,-0.41 -14.56,-2.49 -14.99,-5.82 -0.41,-2.5 -0.83,-5.41 -1.24,-6.25 -4.17,-4.99 -5.84,-65.37 -3.75,-141.14 0.41,-15.82 -1.66,-27.06 -6.67,-34.14 -8.74,-13.75 -12.07,-13.75 -23.3,0.41zm-593.3 88.69c2.92,0 6.67,3.33 8.33,7.08 5.82,13.73 10,284.35 4.58,299.76 -1.66,5.41 -4.99,9.57 -7.5,9.57 -2.07,0 -27.06,-12.9 -54.54,-28.72 -27.89,-15.82 -71.61,-38.72 -97.41,-50.8l-46.65 -22.47 1.26 -27.9c0.42,-15.4 1.66,-28.72 2.92,-29.55 4.58,-3.75 127.39,-52.87 132.4,-52.87 7.49,0 40.79,-23.73 43.71,-31.23 6.67,-17.91 -27.89,-43.3 -82.02,-60.36 -8.74,-2.92 -14.99,-5.84 -13.73,-7.08 1.24,-1.26 21.23,-3.34 44.96,-4.18 23.73,-1.24 43.71,-2.9 44.54,-4.16 1.25,-0.83 4.58,-0.41 7.91,0.83 2.92,1.25 8.33,2.09 11.24,2.09zm97.02 7.91c1.24,3.33 -0.42,4.99 -3.75,3.75 -2.92,-0.83 -6.25,-4.17 -7.08,-7.08 -1.26,-3.35 0.41,-5.01 3.75,-3.75 2.91,0.83 6.23,4.16 7.08,7.08zm-225.25 25.39c34.97,10.83 67.86,27.89 67.86,35.39 0,6.25 -15.41,18.74 -23.73,18.74 -2.92,0 -17.08,5.41 -31.64,12.07 -25.82,11.66 -54.13,21.23 -64.13,21.23 -3.33,0 -5.4,-5.82 -5.4,-15.82 0,-8.74 -2.09,-17.91 -5.01,-20.83 -3.33,-3.33 -3.33,-6.23 0,-10.4 2.92,-3.33 3.75,-7.08 2.09,-8.74 -3.33,-2.92 -2.09,-30.81 1.24,-36.63 3.75,-5.84 31.65,-3.75 58.71,4.99zm207.34 3.75c19.57,7.08 20.81,8.32 22.9,23.73 1.24,8.74 2.07,34.13 2.07,55.79l-0.41 39.55 -29.14 11.24c-15.82,6.25 -30.81,11.24 -33.31,11.66 -6.25,0 -4.58,-136.15 2.07,-149.05 1.25,-2.49 17.08,0.41 35.81,7.08zm110.74 31.21c29.14,6.25 66.2,21.66 66.2,27.9 0,7.08 -104.92,49.55 -121.99,49.55 -4.57,0 -2.07,-71.61 2.51,-78.29 4.99,-6.65 19.15,-6.25 53.28,0.83zm-828.93 14.99c0,2.09 -2.09,4.17 -4.58,4.17 -2.07,0 -2.92,-2.09 -1.66,-4.17 1.25,-2.49 3.33,-4.16 4.58,-4.16 0.83,0 1.67,1.66 1.67,4.16zm6.25 30.4c4.99,19.15 4.16,38.72 -1.66,42.47 -1.67,0.83 -8.33,-2.49 -14.58,-7.5 -11.24,-9.15 -11.64,-9.98 -6.65,-27.89 2.49,-10.4 5.41,-21.23 6.25,-24.15 3.75,-10.81 11.66,-2.49 16.65,17.08zm211.92 -17.91c7.08,2.49 9.98,5.84 8.32,10.41 -1.66,4.17 0,6.25 4.17,6.25 3.73,0 6.65,-2.07 6.65,-4.16 0,-2.49 2.92,-4.16 6.25,-4.16 3.33,0 6.25,-2.09 6.25,-4.16 0,-5.41 27.89,-5.41 31.21,0 2.09,3.33 4.58,2.9 8.74,-0.42 12.49,-10.41 76.2,2.49 65.37,13.32 -6.25,5.82 -69.53,27.48 -109.49,37.05 -22.49,5.41 -43.3,12.9 -47.88,17.48 -8.33,7.91 -8.33,7.91 2.07,15.82 9.59,7.08 10,7.91 2.51,10.83 -12.92,4.99 -20.4,-3.75 -36.22,-40.8 -17.91,-41.64 -22.07,-57.46 -16.24,-57.46 2.09,0 4.16,1.66 4.16,4.17 0,2.07 2.09,4.16 4.17,4.16 2.49,0 4.16,-2.92 4.16,-6.25 0,-4.58 5.41,-6.25 22.47,-6.25 12.49,0 27.48,1.66 33.32,4.16zm690.28 42.47c3.33,5.41 9.17,22.49 13.33,38.72 4.16,15.82 8.74,30.81 10.4,33.3 2.09,2.09 4.58,10.83 6.25,19.16 1.67,8.32 7.08,26.23 12.49,39.55 16.24,40.8 17.08,69.12 1.26,56.62 -9.17,-7.5 -37.9,-22.9 -100.76,-53.71 -34.15,-16.67 -65.37,-32.06 -68.69,-34.15 -4.58,-2.49 -6.67,-12.07 -7.5,-34.56l-1.24 -31.22 32.47 -12.92c17.89,-7.06 39.96,-14.14 49.12,-15.82 9.16,-1.66 20.4,-5.4 24.98,-8.32 11.66,-8.33 21.24,-7.08 27.89,3.33zm-509.6 3.75c-2.09,5.82 -53.71,22.9 -79.1,26.22 -10,1.25 -14.16,0.83 -9.59,-0.41 4.58,-1.25 10.42,-3.75 12.92,-5.84 6.65,-5.41 59.95,-23.73 69.53,-24.14 4.16,-0.42 7.08,1.67 6.25,4.16zm16.65 33.73c3.33,4.57 3.75,14.16 1.25,29.14 0,2.07 -2.51,3.33 -5.01,3.33 -9.15,0 -49.55,-13.33 -49.55,-16.24 0,-3.33 35.81,-19.98 44.13,-20.81 2.5,-0.43 6.67,2.07 9.17,4.58zm818.95 2.07c0,2.5 1.24,6.25 3.33,7.91 1.67,1.66 2.9,4.58 2.9,6.67 0,5.41 -42.04,24.14 -54.54,24.14 -14.99,0 -32.05,21.66 -25.39,31.64 4.16,5.84 24.56,13.32 45.39,16.24 24.97,3.75 32.05,13.73 33.71,48.29 1.26,21.24 0.43,28.74 -3.33,28.74 -6.25,0 -54.54,-26.24 -72.85,-39.55 -6.67,-5.01 -30.4,-16.24 -52.04,-24.58 -46.22,-18.32 -56.22,-24.56 -52.88,-33.71 3.33,-7.5 4.99,-8.33 77.85,-34.15 30.82,-10.81 63.29,-23.73 72.87,-28.72 17.06,-9.57 24.98,-10.4 24.98,-2.92zm-968.83 16.65c0,15.82 9.15,20.83 47.46,24.15 19.15,1.67 37.05,4.16 40.81,6.25 3.33,1.66 15.82,4.16 27.48,5.41 33.31,3.33 39.13,7.91 39.13,32.05 0,20 0,20.4 -13.33,20 -16.65,-0.42 -102.42,32.47 -128.22,48.72 -10.4,6.65 -27.48,19.15 -37.89,27.89 -10.83,8.74 -21.23,15.82 -23.73,15.82 -4.58,0 -9.59,-19.15 -11.66,-45.8 -0.83,-10.4 -2.09,-27.06 -3.33,-37.48 -2.09,-22.47 4.16,-34.54 27.06,-52.04 16.65,-12.9 19.98,-24.56 11.66,-40.38 -5.41,-9.98 0.41,-15.82 15.4,-15.82 7.08,0 9.16,2.5 9.16,11.24zm481.28 1.67c4.58,23.32 3.75,25.82 -8.74,22.49 -12.49,-2.92 -26.22,-13.32 -26.22,-19.57 0,-3.33 22.48,-15.4 29.55,-15.82 1.66,0 3.75,5.84 5.41,12.9zm-652.82 18.33c49.14,7.08 59.54,12.49 50.38,27.48 -2.49,4.16 -6.25,7.91 -7.91,7.91 -1.24,0 -9.57,6.25 -17.48,14.16 -8.33,7.49 -22.9,19.15 -32.47,25.8 -10,6.67 -21.66,15.41 -26.22,19.57 -4.17,3.75 -10,6.67 -12.49,5.82 -5.01,-1.66 -7.91,-106.99 -2.92,-106.99 2.09,0 24.15,2.9 49.12,6.25zm1142.44 22.9c0,2.07 -0.83,4.16 -1.66,4.16 -1.26,0 -3.33,-2.09 -4.58,-4.16 -1.24,-2.5 -0.41,-4.18 1.66,-4.18 2.51,0 4.58,1.68 4.58,4.18zm-233.99 29.14c10.83,6.65 13.32,10.81 13.32,22.48 0,21.66 -8.74,57.88 -12.9,53.7 -7.08,-7.08 -22.9,-84.51 -17.08,-84.51 1.66,0 9.17,3.75 16.65,8.33zm0 0z"/>
 </g>
</svg>
